<svg xmlns="http://www.w3.org/2000/svg" height="40" viewBox="0 -960 960 960" width="40"><path d="M224-58.67q-33.73 0-58.86-25.13Q140-108.94 140-142.67V-650l251.33-251.33H736q33.73 0 58.86 25.13Q820-851.06 820-817.33v674.66q0 33.73-25.14 58.87Q769.73-58.67 736-58.67H224Zm0-84h512v-674.66H428.92L224-612.83v470.16Zm0 0h512-512Zm176-177.66h160q16.56 0 28.45-11.7 11.88-11.7 11.88-27.97v-120q0-15.67-11.83-27t-28.17-13.33V-560q0-33.14-23.57-56.74-23.57-23.59-56.66-23.59-33.1 0-56.43 23.59-23.34 23.6-23.34 56.74v39.67q-17 2-28.5 13.33t-11.5 27v120q0 16.27 11.7 27.97t27.97 11.7Zm40.33-200v-39.94q0-16.11 11.44-28.08 11.45-11.98 28.17-11.98 16.73 0 28.56 11.93 11.83 11.94 11.83 28.07v40h-80Z"/></svg>