<svg xmlns="http://www.w3.org/2000/svg" height="20" viewBox="0 -960 960 960" width="20"><path d="M279.26-124.08q-25.16 0-42.57-17.56-17.42-17.57-17.42-42.71v-475.96l175.62-175.61h285.57q25.14 0 42.7 17.56 17.57 17.57 17.57 42.71v591.3q0 25.14-17.58 42.71-17.58 17.56-42.73 17.56H279.26Zm128.68-217.84h143.78q13.51 0 23.18-9.41 9.68-9.41 9.68-22.91v-107.8q0-13.5-10.47-23.05-10.47-9.54-25.61-9.54v-39.51q0-28.38-20.2-48.56-20.21-20.18-48.62-20.18-28.41 0-48.31 20.13-19.89 20.13-19.89 48.44v39.43q-15.24 0-25.55 9.52t-10.31 23.05v108q0 13.53 9.41 22.96 9.41 9.43 22.91 9.43Zm32.64-172.96V-554q0-16.58 11.27-28.25 11.27-11.67 27.84-11.67 16.58 0 28.25 11.45 11.68 11.46 11.68 28.16v39.43h-79.04Z"/></svg>