<svg xmlns="http://www.w3.org/2000/svg" height="48" viewBox="0 -960 960 960" width="48"><path d="m745.63-682.52-58.43 31.5q-10 5-18-.75t-6.5-16.25l10.93-66q1-3.5-.5-6.97-1.5-3.47-4-6.97l-48.43-46q-7.5-6.43-4.5-15.96 3-9.54 13.5-11.54l65.93-8.93q1.5-.57 12.5-8.5l30.5-59.5q3.94-9.5 14.42-9 10.49.5 15.58 9l28.94 59.5q1 3 13.06 8.5l66.44 8.93q10 2 13.5 11.54 3.5 9.53-4 15.96l-48.5 46q-1 1.5-5 13.94l11.5 66q1.5 10.5-6.22 16.53-7.72 6.03-17.22.47l-60.5-31.5q-2-1-15 0ZM110.04-278.37q-37.02 0-58.56-20.66-21.55-20.66-21.55-57.09 0-65.95 55.18-144.59 55.17-78.64 105.76-127.09v-60.03q0-67.58 47.25-114.72 47.25-47.15 115.29-47.15h197.07q-6.37 18.44-9.34 37.46-2.97 19.03-2.97 38.78 0 56.96 25.11 106.13 25.11 49.18 70.4 81.81-50.64 40.5-97.18 75.13-46.54 34.63-90.43 64.29-43.9 29.67-84.5 55.14-40.61 25.48-79.94 46.68-38.09 21.39-84.08 43.65-45.99 22.26-87.51 22.26Zm243.63 167.5q-58.19 0-102.45-35.47-44.26-35.46-56.02-91.09 27.08-10.61 56.07-25.2 28.99-14.59 57.45-30.41 46.45-25.26 94.83-55.08 48.38-29.83 96.41-62.78 48.04-32.95 95.14-69.55 47.1-36.59 92.21-74.96 18.73 8.3 39.44 12.7 20.71 4.41 42.95 3.97v264.88q0 68.23-47.43 115.61-47.42 47.38-114.44 47.38H353.67ZM106.54-354.65q21.96 0 42.92-4 20.95-4 41.41-11.44v-125.65Q155.43-460 135.89-426q-19.54 34-29.35 71.35Z"/></svg>