<svg xmlns="http://www.w3.org/2000/svg" height="20" viewBox="0 -960 960 960" width="20"><path d="M170.87-183.87q-34.48 0-58.74-24.27-24.26-24.27-24.26-58.77v-426.5q0-34.5 24.26-58.61t58.74-24.11h322.87q15.63 0 25.18 10.89 9.56 10.89 9.6 26.76 1.52 17.05 5.16 34.21 3.65 17.16 10.69 33.44 7 17.87-2.67 33.79-9.68 15.91-28.31 15.91H170.87v354.26h618.26v-228.41q0-17.45 11.96-29.48 11.97-12.02 29.33-12.02t29.54 12.02q12.17 12.03 12.17 29.48v228.41q0 34.48-24.26 58.74-24.26 24.26-58.74 24.26H170.87Zm548.41-528.72h-80.41q-16.74 0-28.16-11.48-11.43-11.49-11.43-28.13 0-16.65 11.55-28.22Q622.37-792 639.11-792h80.17v-80.41q0-16.74 11.49-28.16Q742.25-912 758.9-912q16.64 0 28.22 11.43 11.58 11.42 11.58 28.16V-792h80.41q16.73 0 28.16 11.37 11.43 11.36 11.43 28.01 0 16.64-11.43 28.34-11.43 11.69-28.16 11.69H798.7v80.42q0 16.73-11.37 28.16-11.37 11.42-28.01 11.42-16.65 0-28.34-11.54-11.7-11.55-11.7-28.28v-80.18ZM516-312q-15.3 0-25.65-10.29Q480-332.58 480-347.79t10.35-25.71Q500.7-384 516-384h168q15.3 0 25.65 10.29Q720-363.42 720-348.21t-10.35 25.71Q699.3-312 684-312H516ZM330-444l-56-56q-11-11-11-25.5t11-25.98Q285-562 299.5-562t25.5 11l77.93 77.93q12.68 12.31 12.68 28.89 0 16.57-12.68 29.25L325-337q-11 11-25 10.5T275-338q-11-11-11-25.5t11-25.5l55-55Z"/></svg>