<svg xmlns="http://www.w3.org/2000/svg" height="24" viewBox="0 -960 960 960" width="24"><path d="M288-562.5q-33 0-55.25-22.25T210.5-640v-160q0-33 22.25-55.25T288-877.5q32 0 54.75 22.25T365.5-800v160q0 33-22.75 55.25T288-562.5Zm-26.5 229q-11-11-11-26.5v-66q-67.5-12-114-61t-55-116q-2-15 8.25-24.5T113.5-639q13.5-2 26.75 6.25t17.25 29.25q9.5 45.5 45.75 75.75T288-497.5q48 0 83.75-29.5T418-601q5-21.5 18-29.5t26.5-6q13.5 2 23.5 11.5t8 24q-9.5 66-55.25 114.75T325.5-426v66q0 15.5-11 26.5t-26.5 11q-15.5 0-26.5-11Zm64 243.5q-31 0-53-22t-22-53v-40q0-15.5 11-26.5t26.5-11h355q15.5 0 26.5-11t11-26.5q0-15.5-11-26.5t-26.5-11H423q-9.5 0-16-6.5t-6.5-16q0-9.5 6.5-16t16-6.5h137.5q15.5 0 26.5-11t11-26.5q0-15.5-11-26.5t-26.5-11h-28q-8 0-12.25-7t.25-14.5q23-43 34.5-95t14.5-103.5Q571-677 557-691t-33.5-14h-42q-15.5 0-26.5-11t-11-26.5v-90q0-15.5 11-26.5t26.5-11H758q31 0 53 22t22 53v630q0 31-22 53t-53 22H325.5Z"/></svg>