<svg xmlns="http://www.w3.org/2000/svg" height="40" viewBox="0 -960 960 960" width="40"><path d="M769-808v656V-808ZM271.67-110.67V-252H313v100h456v-656H463v-41.33h347.33v738.66H271.67Zm20.06-449q-25.06 0-42.56-17.51-17.5-17.5-17.5-42.82v-180q0-25.32 17.52-43.16Q266.71-861 291.87-861q24.66 0 42.9 17.84Q353-825.32 353-800v180q0 25.32-18.09 42.82-18.1 17.51-43.18 17.51Zm-20.06 220v-100.66q-81.67-7.34-140-62.43-58.34-55.09-58.34-134.57h41.34q0 68.5 52.72 112.41Q220.12-481 291.73-481q71.6 0 124.6-43.85 53-43.84 53-112.48h41.34q0 79.33-58.34 134.5Q394-447.67 313-440.33v100.66h-41.33ZM423-252h236v-24H423v24Zm0-120h156v-24H423v24Z"/></svg>